<?xml version="1.0" standalone="no"?>
<!DOCTYPE svg PUBLIC "-//W3C//DTD SVG 20010904//EN"
 "http://www.w3.org/TR/2001/REC-SVG-20010904/DTD/svg10.dtd">
<svg version="1.0" xmlns="http://www.w3.org/2000/svg"
 width="260.000000pt" height="260.000000pt" viewBox="0 0 260.000000 260.000000"
 preserveAspectRatio="xMidYMid meet">
<metadata>
Created by potrace 1.11, written by Peter Selinger 2001-2013
</metadata>
<g transform="translate(0.000000,260.000000) scale(0.100000,-0.100000)"
fill="#000000" stroke="none">
<path d="M0 1300 l0 -1300 1300 0 1300 0 0 1300 0 1300 -1300 0 -1300 0 0
-1300z m1819 444 c12 -15 21 -37 21 -49 0 -33 59 -145 77 -145 8 0 17 -8 19
-18 3 -9 18 -25 35 -34 17 -10 29 -25 29 -38 0 -12 9 -24 24 -30 13 -5 32 -21
43 -36 10 -14 35 -43 56 -63 21 -20 43 -47 50 -61 7 -13 64 -56 127 -95 63
-40 141 -97 173 -126 52 -49 57 -58 57 -96 0 -83 -67 -123 -206 -123 -61 0
-364 85 -885 248 l-285 90 -235 8 c-205 7 -223 9 -144 15 50 4 134 7 188 8
l98 1 -20 29 c-26 36 -38 38 -286 48 -183 7 -187 8 -95 14 52 4 147 7 210 8
63 1 120 5 126 9 6 4 14 17 18 28 7 24 55 20 -434 42 l-155 8 185 7 c444 17
440 17 440 42 0 23 0 23 -232 30 -128 4 -291 10 -363 14 l-130 6 215 8 c519
18 539 19 545 35 3 8 3 17 1 20 -3 2 -178 10 -390 16 -212 7 -388 15 -391 17
-4 4 693 30 791 29 23 0 33 5 37 20 5 18 0 20 -36 20 -87 0 -991 31 -994 34
-2 1 234 8 524 15 491 12 530 14 555 32 56 39 125 13 163 -61 42 -81 88 -110
179 -110 87 0 105 11 181 115 39 51 75 94 82 94 6 1 21 -11 32 -25z"/>
</g>
</svg>
